<?xml version="1.0" encoding="UTF-8" standalone="no"?>
<!-- Created with Inkscape (http://www.inkscape.org/) -->

<svg
   xmlns:dc="http://purl.org/dc/elements/1.1/"
   xmlns:cc="http://creativecommons.org/ns#"
   xmlns:rdf="http://www.w3.org/1999/02/22-rdf-syntax-ns#"
   xmlns:svg="http://www.w3.org/2000/svg"
   xmlns="http://www.w3.org/2000/svg"
   xmlns:sodipodi="http://sodipodi.sourceforge.net/DTD/sodipodi-0.dtd"
   xmlns:inkscape="http://www.inkscape.org/namespaces/inkscape"
   width="422.46631"
   height="323.62912"
   id="svg11777"
   version="1.1"
   inkscape:version="0.48.4 r9939"
   sodipodi:docname="Nytt dokument 19">
  <defs
     id="defs11779" />
  <sodipodi:namedview
     id="base"
     pagecolor="#ffffff"
     bordercolor="#666666"
     borderopacity="1.0"
     inkscape:pageopacity="0.0"
     inkscape:pageshadow="2"
     inkscape:zoom="1.0751299"
     inkscape:cx="163.09349"
     inkscape:cy="228.29992"
     inkscape:document-units="px"
     inkscape:current-layer="layer1"
     showgrid="false"
     fit-margin-top="0"
     fit-margin-left="0"
     fit-margin-right="0"
     fit-margin-bottom="0"
     inkscape:window-width="1366"
     inkscape:window-height="741"
     inkscape:window-x="0"
     inkscape:window-y="-1"
     inkscape:window-maximized="1" />
  <metadata
     id="metadata11782">
    <rdf:RDF>
      <cc:Work
         rdf:about="">
        <dc:format>image/svg+xml</dc:format>
        <dc:type
           rdf:resource="http://purl.org/dc/dcmitype/StillImage" />
        <dc:title></dc:title>
      </cc:Work>
    </rdf:RDF>
  </metadata>
  <g
     inkscape:label="Layer 1"
     inkscape:groupmode="layer"
     id="layer1"
     transform="translate(-260.77153,-302.61548)">
    <path
       style="fill:#000000;stroke:#000000;stroke-width:2;stroke-linecap:butt;stroke-linejoin:round;stroke-miterlimit:4;stroke-opacity:1;stroke-dasharray:16, 2;stroke-dashoffset:0"
       id="path11799"
       d="m 434.43821,533.36722 c -13.77653,0.43026 -27.03457,4.14232 -39.87403,8.88257 -12.37011,5.05658 -24.30705,11.08489 -36.4366,16.68217 -12.28763,5.53751 -24.64072,10.86677 -36.45561,17.37629 -6.87906,3.94762 -14.23274,6.84885 -22.00795,8.36471 -2.71787,0.31935 -5.45187,0.50189 -8.18437,0.31999 -3.74517,0.0176 -4.07763,-4.96303 -4.34515,-7.80921 0.0265,-5.86887 -0.45423,-11.60812 -1.41664,-17.39097 -0.66968,-3.27031 -1.01589,-6.62355 -1.64789,-9.88518 0,0 37.06821,-21.12553 37.06821,-21.12553 l 0,0 c 1.71419,3.39574 0.88159,7.5582 1.91863,11.20898 0.96,5.85411 1.82627,11.65655 1.69953,17.6123 0.081,1.04006 0.32756,2.08359 0.22373,3.12161 -0.0285,0.28539 -0.49941,-0.56722 -0.32653,-0.79606 0.28165,-0.37281 1.15299,0.48198 1.40156,0.0209 2.46742,-0.0978 4.93724,-0.32734 7.33656,-0.94261 7.31048,-1.89256 14.12892,-5.14649 20.72095,-8.79258 11.93913,-6.18073 24.28567,-11.46309 36.48635,-17.09709 12.12798,-5.63393 24.06747,-11.74512 36.64574,-16.34001 13.41372,-4.46707 27.23683,-7.69465 41.42031,-8.27747 0,0 -34.2268,24.86722 -34.2268,24.86722 z"
       inkscape:connector-curvature="0" />
    <path
       style="fill:#000000;stroke:#000000;stroke-width:2;stroke-linecap:butt;stroke-linejoin:round;stroke-miterlimit:4;stroke-opacity:1;stroke-dasharray:16, 2;stroke-dashoffset:0"
       id="path11801"
       d="m 451.58106,479.08151 c -13.59115,-0.37678 -27.18995,-0.28082 -40.78484,-0.29011 -14.72136,-0.008 -29.44287,-0.0192 -44.16403,0.0701 -9.76708,0.0361 -19.53339,0.14323 -29.30058,0.12562 -10.49685,-0.51977 -20.89286,0.33833 -31.32053,1.40967 -6.00643,0.63987 -12.02213,1.17043 -18.04466,1.63151 -2.98259,0.0932 -5.9664,-1.4e-4 -8.94945,-0.0312 -4.09892,-0.0495 -8.19821,-0.0238 -12.29711,0.0115 -4.16479,-1.80802 -5.25232,-6.30214 -4.88023,-10.43842 1.32587,-5.1367 3.43769,-10.0833 5.49082,-14.97535 1.43138,-3.33226 3.45608,-6.45371 4.58216,-9.906 0.70796,-1.3908 0.3417,-0.75273 1.07823,-1.92585 0,0 39.33333,-16.55371 39.33333,-16.55371 l 0,0 c -0.96243,0.73637 -0.46936,0.33915 -1.47352,1.1987 -2.03071,1.79878 -3.0906,7.4885 -4.9972,9.73281 -2.52226,4.35608 -3.50283,9.30019 -5.87444,13.72641 -0.37146,1.55168 -1.6342,4.71863 1.16018,4.13943 4.07354,0.044 8.14743,0.0813 12.22121,0.0431 2.96291,-0.0251 5.92878,-0.0451 8.88556,-0.25687 5.80288,-0.27824 11.59087,-0.78396 17.37616,-1.30626 10.5439,-0.92139 21.08785,-1.39819 31.67655,-1.17805 9.65194,-0.0173 19.30297,0.0886 28.95479,0.12562 14.65679,0.0904 29.31397,0.0773 43.97097,0.0701 13.86116,-0.009 27.72575,0.079 41.58343,-0.29011 0,0 -34.2268,24.86723 -34.2268,24.86723 z"
       inkscape:connector-curvature="0" />
    <path
       style="fill:#000000;stroke:#000000;stroke-width:2;stroke-linecap:butt;stroke-linejoin:round;stroke-miterlimit:4;stroke-opacity:1;stroke-dasharray:16, 2;stroke-dashoffset:0"
       id="path11803"
       d="m 607.48049,499.06383 c -0.36567,9.60261 -0.31014,19.21655 -0.26767,28.8244 0.0239,10.51575 -0.0791,21.03058 -0.0113,31.54619 -0.003,6.8466 0.17915,13.69085 0.26763,20.536 0.0267,3.71198 0.0437,7.42393 0.0347,11.13603 0.0447,2.40176 0.027,4.80361 0.0914,7.20503 -0.22098,0.79881 0.54615,4.42335 -0.3698,2.26905 0.25363,-0.49949 1.05879,-0.41942 1.57124,-0.68462 0.42337,-0.29803 2.01221,0.26711 2.3076,-0.0749 0.23484,-0.27192 0.51766,-1.2314 0.20263,-1.05864 -11.96891,6.56384 -23.66657,13.6106 -35.49986,20.41591 12.43447,-8.61625 4.09324,-2.86149 37.84792,-22.35833 0.26564,-0.15343 1.17814,-0.26572 0.91368,-0.11027 -60.14939,35.35636 -44.86497,29.06069 -34.45902,19.49934 0.72669,-1.13454 0.34822,-0.58647 1.133,-1.64587 0,0 39.23101,-16.76864 39.23101,-16.76864 l 0,0 c -0.79915,0.92945 -0.39706,0.48271 -1.20399,1.34227 -0.14284,0.30425 -0.6794,1.51692 -0.91066,1.65882 -25.33131,15.54278 -73.21504,43.00816 -2.33137,1.82375 0.28358,-0.16476 -0.4471,0.47994 -0.67065,0.71991 -34.91838,20.47448 -23.9299,23.09453 -41.25599,21.52985 -1.36324,-0.44102 -2.5778,-1.09399 -3.50015,-2.23616 -1.10018,-1.76092 -1.23315,-2.89067 -1.05333,-4.93514 0.0635,-2.4325 0.0474,-4.86538 0.0914,-7.29821 -0.009,-3.72388 0.008,-7.44763 0.0347,-11.1714 0.0885,-6.93606 0.2698,-13.87124 0.26763,-20.80872 0.0674,-10.51177 -0.0347,-21.02276 -0.0113,-31.53469 0.0419,-9.51684 0.10286,-19.04023 -0.26767,-28.55162 0,0 37.81812,-19.2693 37.81812,-19.2693 z"
       inkscape:connector-curvature="0" />
    <path
       style="fill:#000000;stroke:#000000;stroke-width:2;stroke-linecap:butt;stroke-linejoin:round;stroke-miterlimit:4;stroke-opacity:1;stroke-dasharray:16, 2;stroke-dashoffset:0"
       id="path11805"
       d="m 575.02263,454.82989 c -2.59535,-7.65566 -7.10425,-14.46981 -10.98887,-21.51104 -2.85225,-5.59391 -6.37576,-10.84435 -9.21571,-16.43721 -0.53965,-1.60289 -1.43001,-2.80151 -2.72797,-3.8305 0,0 36.35492,-22.3308 36.35492,-22.3308 l 0,0 c 1.37477,1.54575 2.66539,3.19143 3.25791,5.213 2.60815,5.64179 5.96346,10.93069 8.80318,16.4552 3.90747,7.3161 8.35604,14.35979 11.67565,21.97621 0,0 -37.15911,20.46514 -37.15911,20.46514 z"
       inkscape:connector-curvature="0" />
    <path
       style="fill:#000000;stroke:#000000;stroke-width:2;stroke-linecap:butt;stroke-linejoin:round;stroke-miterlimit:4;stroke-opacity:1;stroke-dasharray:16, 2;stroke-dashoffset:0"
       id="path11807"
       d="m 578.3422,471.77307 c -0.87301,0.46677 -1.72652,0.972 -2.61902,1.4003 -2.07945,0.99791 -8.13065,4.35792 -6.12693,3.21556 60.78287,-34.65349 40.27262,-24.81795 29.00923,-16.07079 -3.43457,2.76059 -5.9088,6.10435 -8.0175,9.91386 -1.02215,1.88774 -2.14795,3.66256 -2.69632,5.74967 -0.24207,1.72147 -0.30081,3.15377 -1.30671,4.64576 -0.22772,0.2903 -0.43382,0.59606 -0.64689,0.89663 0,0 -39.83375,15.68441 -39.83375,15.68441 l 0,0 c 0.32326,-0.095 0.65304,-0.15285 0.9422,-0.34851 1.91049,-1.04121 2.40113,-0.18073 2.41145,-2.23501 0.37598,-2.51677 0.85875,-4.93608 2.37194,-7.05116 2.20617,-3.99244 3.88799,-8.30786 7.65392,-11.1649 13.33166,-15.24213 33.98378,-22.59042 52.35854,-30.66197 0,0 -33.50016,26.02615 -33.50016,26.02615 z"
       inkscape:connector-curvature="0" />
    <g
       id="g11825"
       transform="translate(131.42857,188.57143)">
      <path
         inkscape:connector-curvature="0"
         d="m 420.78035,264.83624 c -9.38613,-1.95 -18.72003,-4.21862 -27.98506,-6.69494 -10.94951,-2.25599 -21.63073,-5.56933 -32.46547,-8.28112 -7.18379,-2.28101 -14.22185,-4.90301 -21.54748,-6.70523 -3.74834,-0.83728 -7.57068,-1.21511 -11.40615,-1.23464 -1.14921,-0.77162 -1.93822,-1.81377 -2.68388,-2.94647 0,0 36.86375,-21.62973 36.86375,-21.62973 l 0,0 c 0.13427,-0.0811 0.33725,0.36802 0.46892,-0.28334 3.90334,0.44773 7.78177,1.08593 11.56212,2.18474 7.15895,2.11072 14.1593,4.69336 21.30398,6.85092 10.69316,3.00874 21.36258,6.11291 32.24387,8.3957 9.18958,2.28108 18.49545,4.94039 27.98354,5.39599 0,0 -34.33814,24.94812 -34.33814,24.94812 z"
         id="path11819"
         style="fill:#000000;stroke:#000000;stroke-width:2;stroke-linecap:butt;stroke-linejoin:round;stroke-miterlimit:4;stroke-opacity:1;stroke-dasharray:16, 2;stroke-dashoffset:0" />
      <path
         inkscape:connector-curvature="0"
         d="m 403.50396,282.54114 c -12.33675,1.92466 -24.6891,3.84065 -37.06037,5.5638 -8.14343,1.10015 -16.30797,2.01336 -24.5142,2.45418 -2.60777,0.14939 -5.22118,0.092 -7.83145,0.0742 -1.17237,0.002 -2.34464,0.002 -3.51699,-0.001 0,0 34.58093,-25.10511 34.58093,-25.10511 l 0,0 c 1.15534,0.006 2.30958,0.033 3.46467,0.0596 2.49337,0.0207 4.98622,-0.0137 7.47763,-0.11989 7.88515,-0.36664 15.74259,-1.1885 23.56632,-2.22381 12.61691,-1.8147 25.23622,-3.68533 37.75514,-6.09047 0,0 -33.92168,25.38867 -33.92168,25.38867 z"
         id="path11821"
         style="fill:#000000;stroke:#000000;stroke-width:2;stroke-linecap:butt;stroke-linejoin:round;stroke-miterlimit:4;stroke-opacity:1;stroke-dasharray:16, 2;stroke-dashoffset:0" />
      <path
         inkscape:connector-curvature="0"
         d="m 400.64681,302.54114 c -11.30596,2.27971 -22.39907,5.12215 -33.20988,9.14894 -4.97304,1.89791 -10.06845,3.68652 -14.88418,5.97402 -1.23352,0.58593 -4.76729,2.66649 -3.58242,1.98753 35.20183,-20.17122 43.50781,-25.40163 30.0721,-17.02317 -4.32257,2.62153 -7.81322,6.30779 -11.18974,10.01537 -1.31285,1.82518 -0.68957,0.87694 -1.86483,2.84801 0,0 -39.13092,16.6693 -39.13092,16.6693 l 0,0 c 1.62395,-1.41314 0.90506,-0.55065 2.04763,-2.67462 2.70175,-4.53967 6.98084,-8.04728 10.81131,-11.61321 19.4943,-12.10005 38.62904,-24.73187 60.5134,-31.76392 11.21748,-3.80103 22.7316,-6.62162 34.33922,-8.95692 0,0 -33.92169,25.38867 -33.92169,25.38867 z"
         id="path11823"
         style="fill:#000000;stroke:#000000;stroke-width:2;stroke-linecap:butt;stroke-linejoin:round;stroke-miterlimit:4;stroke-opacity:1;stroke-dasharray:16, 2;stroke-dashoffset:0" />
    </g>
    <path
       style="fill:#000000;stroke:#000000;stroke-width:2;stroke-linecap:butt;stroke-linejoin:round;stroke-miterlimit:4;stroke-opacity:1;stroke-dasharray:16, 2;stroke-dashoffset:0"
       id="path11834"
       d="m 647.79108,411.31669 c 7.70684,-1.16801 15.24837,-3.26957 22.93033,-4.6442 3.52278,-0.59847 1.86401,-0.32506 4.9754,-0.8257 0,0 -33.9297,25.47188 -33.9297,25.47188 l 0,0 c -2.9337,0.45296 -1.36461,0.19943 -4.70564,0.77066 -7.84054,1.52449 -15.6136,3.69773 -23.60853,4.17548 0,0 34.33814,-24.94812 34.33814,-24.94812 z"
       inkscape:connector-curvature="0" />
    <path
       style="fill:#000000;stroke:#000000;stroke-width:2;stroke-linecap:butt;stroke-linejoin:round;stroke-miterlimit:4;stroke-opacity:1;stroke-dasharray:16, 2;stroke-dashoffset:0"
       id="path11836"
       d="m 656.36251,428.45955 c 7.1018,0.15045 14.20735,0.13292 21.31022,0.0666 3.25079,-0.047 1.72909,-0.0214 4.56512,-0.0743 0,0 -34.35925,24.96346 -34.35925,24.96346 l 0,0 c -2.70046,-0.0531 -1.2469,-0.0274 -4.36074,-0.0743 -7.16399,-0.0687 -14.33049,-0.0796 -21.49349,0.0666 0,0 34.33814,-24.94812 34.33814,-24.94812 z"
       inkscape:connector-curvature="0" />
    <path
       style="fill:#000000;stroke:#000000;stroke-width:2;stroke-linecap:butt;stroke-linejoin:round;stroke-miterlimit:4;stroke-opacity:1;stroke-dasharray:16, 2;stroke-dashoffset:0"
       id="path11838"
       d="m 650.33763,459.06383 c 0.10074,7.7635 2.16938,15.31771 5.91226,22.086 0.89665,1.88486 2.22271,3.07461 3.8701,4.23644 0,0 -36.06595,22.49994 -36.06595,22.49994 l 0,0 c -1.76408,-1.71916 -3.41424,-3.47893 -4.41232,-5.78376 -3.78463,-7.47482 -6.02206,-15.45663 -7.12221,-23.76932 0,0 37.81812,-19.2693 37.81812,-19.2693 z"
       inkscape:connector-curvature="0" />
    <path
       sodipodi:type="arc"
       style="fill:none;stroke:#000000;stroke-width:2;stroke-linecap:butt;stroke-linejoin:round;stroke-miterlimit:4;stroke-opacity:1;stroke-dasharray:none;stroke-dashoffset:0"
       id="path11844"
       sodipodi:cx="186.02403"
       sodipodi:cy="303.61548"
       sodipodi:rx="6.5108409"
       sodipodi:ry="6.5108409"
       d="m 192.53487,303.61548 c 0,3.59584 -2.915,6.51084 -6.51084,6.51084 -3.59584,0 -6.51084,-2.915 -6.51084,-6.51084 0,-3.59584 2.915,-6.51084 6.51084,-6.51084 3.59584,0 6.51084,2.915 6.51084,6.51084 z"
       transform="translate(476.2215,22.322883)" />
    <path
       sodipodi:type="arc"
       style="fill:none;stroke:#000000;stroke-width:2;stroke-linecap:butt;stroke-linejoin:round;stroke-miterlimit:4;stroke-opacity:1;stroke-dasharray:none;stroke-dashoffset:0"
       id="path11844-3"
       sodipodi:cx="186.02403"
       sodipodi:cy="303.61548"
       sodipodi:rx="6.5108409"
       sodipodi:ry="6.5108409"
       d="m 192.53487,303.61548 c 0,3.59584 -2.915,6.51084 -6.51084,6.51084 -3.59584,0 -6.51084,-2.915 -6.51084,-6.51084 0,-3.59584 2.915,-6.51084 6.51084,-6.51084 3.59584,0 6.51084,2.915 6.51084,6.51084 z"
       transform="translate(421.34441,6.5108442)" />
    <path
       sodipodi:type="arc"
       style="fill:none;stroke:#000000;stroke-width:2;stroke-linecap:butt;stroke-linejoin:round;stroke-miterlimit:4;stroke-opacity:1;stroke-dasharray:none;stroke-dashoffset:0"
       id="path11844-3-4"
       sodipodi:cx="186.02403"
       sodipodi:cy="303.61548"
       sodipodi:rx="6.5108409"
       sodipodi:ry="6.5108409"
       d="m 192.53487,303.61548 c 0,3.59584 -2.915,6.51084 -6.51084,6.51084 -3.59584,0 -6.51084,-2.915 -6.51084,-6.51084 0,-3.59584 2.915,-6.51084 6.51084,-6.51084 3.59584,0 6.51084,2.915 6.51084,6.51084 z"
       transform="translate(435.29621,41.855409)" />
    <path
       sodipodi:type="arc"
       style="fill:none;stroke:#000000;stroke-width:2;stroke-linecap:butt;stroke-linejoin:round;stroke-miterlimit:4;stroke-opacity:1;stroke-dasharray:none;stroke-dashoffset:0"
       id="path11844-3-9"
       sodipodi:cx="186.02403"
       sodipodi:cy="303.61548"
       sodipodi:rx="6.5108409"
       sodipodi:ry="6.5108409"
       d="m 192.53487,303.61548 c 0,3.59584 -2.915,6.51084 -6.51084,6.51084 -3.59584,0 -6.51084,-2.915 -6.51084,-6.51084 0,-3.59584 2.915,-6.51084 6.51084,-6.51084 3.59584,0 6.51084,2.915 6.51084,6.51084 z"
       transform="translate(403.67213,32.554207)" />
  </g>
</svg>
